<!DOCTYPE svg PUBLIC "-//W3C//DTD SVG 20010904//EN" "http://www.w3.org/TR/2001/REC-SVG-20010904/DTD/svg10.dtd">
<svg version="1.0" xmlns="http://www.w3.org/2000/svg" width="194px" height="194px" viewBox="0 0 1940 1940" preserveAspectRatio="xMidYMid meet">
<g id="layerbg1" fill="#fc4c00" stroke="none">
 <path d="M685 1390 c-4 -7 -3 -16 3 -22 14 -14 47 -6 47 12 0 18 -40 26 -50 10z"/>
 <path d="M734 1305 c-4 -9 -2 -21 4 -27 15 -15 44 -1 40 19 -4 23 -36 29 -44 8z"/>
 <path d="M634 1265 c-10 -24 12 -42 34 -29 24 16 21 38 -6 42 -13 2 -25 -3 -28 -13z"/>
 <path d="M455 1190 c-4 -7 -3 -16 3 -22 14 -14 45 -2 40 15 -6 16 -34 21 -43 7z"/>
 <path d="M1672 88 c-29 -29 5 -62 56 -56 30 3 41 30 22 53 -15 18 -61 20 -78 3z"/>
 </g>
<g id="layerbg2" fill="#fe6c00" stroke="none">
 <path d="M805 1420 c-4 -7 -3 -16 3 -22 14 -14 47 -6 47 12 0 18 -40 26 -50 10z"/>
 <path d="M584 1355 c-7 -18 3 -35 21 -35 21 0 28 19 15 35 -16 19 -29 19 -36 0z"/>
 <path d="M830 1346 c-18 -22 -5 -48 22 -44 17 2 23 10 23 28 0 29 -26 38 -45 16z"/>
 <path d="M494 1305 c-4 -9 -2 -21 4 -27 15 -15 44 -1 40 19 -4 23 -36 29 -44 8z"/>
 <path d="M394 1269 c-8 -13 24 -41 41 -36 5 2 10 12 10 23 0 22 -39 32 -51 13z"/>
 <path d="M305 1250 c-4 -7 -3 -16 3 -22 14 -14 45 -2 40 15 -6 16 -34 21 -43 7z"/>
 <path d="M534 1225 c-9 -22 9 -37 37 -33 16 2 24 10 24 23 0 26 -52 35 -61 10z"/>
 <path d="M365 1160 c-4 -7 -3 -16 3 -22 14 -14 47 -6 47 12 0 18 -40 26 -50 10z"/>
 <path d="M1700 200 c-11 -11 -29 -20 -39 -20 -26 0 -51 -37 -51 -76 0 -24 9 -40 37 -64 35 -31 39 -32 102 -27 47 4 68 10 78 24 38 51 23 129 -31 162 -42 26 -70 27 -96 1z m40 -136 c0 -11 -8 -14 -27 -12 -39 4 -42 28 -4 28 21 0 31 -5 31 -16z"/>
 </g>
<g id="layerbg3" fill="#fff533" stroke="none">
 <path d="M853 1042 c-68 -28 -83 -48 -83 -107 0 -44 5 -57 36 -93 47 -55 109 -82 189 -82 53 0 68 4 103 30 47 34 66 64 57 88 -6 15 -8 15 -18 2 -53 -67 -148 -65 -196 5 -48 70 -16 115 82 115 52 0 61 -3 86 -31 39 -42 50 -19 11 24 -52 60 -182 84 -267 49z"/>
 <path d="M1485 456 c-74 -32 -95 -45 -95 -60 0 -8 10 -20 23 -29 12 -8 45 -37 73 -63 82 -78 170 -144 193 -144 27 0 37 25 24 59 -9 24 -161 262 -166 260 -1 -1 -24 -11 -52 -23z"/>
 </g>
<g id="layerbg4" fill="#f3d219" stroke="none">
 <path d="M830 1898 c-4 -19 0 -189 5 -238 4 -43 1 -83 -8 -117 -14 -52 -9 -73 18 -73 18 -1 91 -71 165 -160 39 -47 86 -103 104 -125 50 -59 171 -199 255 -296 40 -46 92 -105 115 -132 22 -26 78 -86 123 -132 77 -80 83 -84 93 -65 14 27 14 78 0 165 -7 39 -15 96 -20 128 -10 69 -22 89 -117 187 -71 74 -132 150 -253 315 -124 168 -207 270 -300 364 -36 36 -87 92 -113 124 -40 47 -65 68 -67 55z"/>
 </g>
<g id="layerbg5" fill="#f6b900" stroke="none">
 <path d="M660 1906 c-19 -7 -73 -27 -120 -43 -47 -17 -111 -42 -143 -57 -32 -14 -62 -26 -68 -26 -6 0 -35 -12 -65 -26 -37 -17 -59 -35 -66 -53 -6 -14 -10 -91 -10 -171 1 -238 14 -281 72 -247 15 9 33 17 39 17 6 0 46 23 89 50 84 54 200 100 254 101 18 0 69 11 113 23 l80 22 13 50 c8 30 10 74 7 114 -4 36 -7 108 -8 160 l-2 95 -75 2 c-44 2 -90 -3 -110 -11z"/>
 <path d="M1359 754 c-10 -12 -10 -22 -1 -47 10 -27 9 -34 -10 -54 -21 -22 -21 -25 -5 -57 21 -45 48 -53 92 -26 45 28 54 61 26 96 -12 15 -21 32 -21 39 0 18 -39 65 -55 65 -7 0 -18 -7 -26 -16z"/>
 <path d="M1178 683 c-15 -14 -15 -19 -3 -44 14 -26 13 -28 -8 -35 -24 -7 -57 -33 -57 -45 0 -17 53 -69 71 -69 10 0 25 12 32 26 9 17 17 23 21 15 12 -19 46 -12 57 12 9 19 6 32 -17 73 -47 86 -65 99 -96 67z"/>
 <path d="M987 602 c-15 -16 -15 -20 4 -52 30 -50 90 -110 111 -110 9 0 22 10 29 21 9 19 6 27 -30 63 -23 23 -41 47 -41 52 0 13 -33 44 -47 44 -5 0 -17 -8 -26 -18z"/>
 </g>
<g id="layerbg6" fill="#000000" stroke="none">
 <path d="M1444 1707 c-3 -8 -4 -45 -2 -83 l3 -69 95 0 95 0 0 80 0 80 -93 3 c-71 2 -94 0 -98 -11z"/>
 <path d="M1055 1670 c-4 -6 9 -30 29 -53 55 -65 142 -175 199 -253 117 -160 208 -273 272 -339 89 -91 95 -103 105 -180 4 -36 14 -72 20 -80 10 -12 39 -15 126 -15 l114 0 0 220 0 220 -155 0 -154 0 -3 128 -3 127 -127 3 -127 3 -3 112 -3 112 -142 3 c-93 2 -144 -1 -148 -8z"/>
 <path d="M137 1423 c-4 -3 -7 -57 -7 -120 l0 -113 -55 0 -55 0 0 -220 0 -220 180 0 179 0 3 -142 3 -143 290 -3 c159 -1 296 0 303 3 18 6 -141 177 -455 490 -134 133 -243 245 -243 250 0 5 -12 21 -26 36 -19 20 -28 44 -36 95 -6 38 -12 75 -14 82 -4 12 -56 17 -67 5z"/>
 <path d="M74 657 c-3 -8 -4 -32 -2 -53 l3 -39 50 0 50 0 0 50 0 50 -48 3 c-34 2 -49 -1 -53 -11z"/>
 <path d="M214 567 c-3 -8 -4 -43 -2 -78 l3 -64 60 0 60 0 0 75 0 75 -58 3 c-42 2 -59 -1 -63 -11z"/>
 </g>
<g id="layerbg7" fill="#fde500" stroke="none">
 <path d="M735 1490 c-33 -10 -75 -19 -93 -19 -54 -2 -170 -48 -254 -101 -43 -27 -83 -50 -88 -50 -20 0 -90 -43 -90 -55 0 -7 11 -20 25 -29 14 -9 25 -22 25 -29 0 -6 109 -120 243 -253 133 -132 269 -271 302 -309 33 -37 112 -120 175 -184 109 -110 117 -116 158 -118 48 -2 250 46 297 71 17 9 33 16 37 16 10 0 130 54 178 79 19 11 36 26 38 35 2 10 -36 58 -95 120 -54 56 -132 143 -173 192 -41 49 -84 98 -96 109 -12 11 -45 49 -74 85 -29 36 -56 67 -59 70 -4 3 -38 43 -75 89 -65 81 -91 110 -183 211 -37 40 -113 92 -131 89 -4 -1 -34 -9 -67 -19z m275 -460 c23 -7 23 -8 -9 -9 -18 -1 -49 -10 -67 -22 -43 -26 -45 -67 -8 -121 45 -64 117 -86 170 -52 13 9 27 14 30 11 3 -3 -12 -17 -33 -31 -75 -51 -221 -26 -278 48 -19 25 -25 45 -25 84 0 29 5 54 12 59 57 37 149 52 208 33z m410 -322 c11 -24 25 -50 31 -59 16 -21 7 -44 -25 -65 -31 -20 -52 -13 -68 21 -10 22 -8 29 11 49 19 20 21 28 12 44 -16 29 -14 52 4 52 9 0 24 -19 35 -42z m-167 -91 c24 -44 28 -60 19 -69 -9 -9 -15 -9 -24 0 -19 19 -38 14 -48 -13 -12 -32 -35 -32 -56 0 -16 25 -12 45 9 45 7 0 23 7 35 16 20 14 21 17 7 43 -8 16 -11 31 -8 35 16 16 37 -3 66 -57z m-216 -34 c3 -10 24 -37 46 -60 37 -39 42 -63 12 -63 -26 0 -113 118 -98 134 12 12 34 6 40 -11z"/>
 </g>
<g id="layer101" fill="#fc4c00" stroke="none">
 <path d="M690 1380 c0 -5 9 -10 20 -10 11 0 20 5 20 10 0 6 -9 10 -20 10 -11 0 -20 -4 -20 -10z"/>
 <path d="M740 1295 c0 -8 7 -15 15 -15 8 0 15 7 15 15 0 8 -7 15 -15 15 -8 0 -15 -7 -15 -15z"/>
 <path d="M640 1254 c0 -9 7 -14 17 -12 25 5 28 28 4 28 -12 0 -21 -6 -21 -16z"/>
 <path d="M460 1180 c0 -5 7 -10 15 -10 8 0 15 5 15 10 0 6 -7 10 -15 10 -8 0 -15 -4 -15 -10z"/>
 <path d="M1673 75 c-7 -21 12 -35 50 -35 24 0 28 4 25 23 -4 28 -64 38 -75 12z"/>
 </g>
<g id="layer102" fill="#fe6c00" stroke="none">
 <path d="M810 1410 c0 -5 9 -10 20 -10 11 0 20 5 20 10 0 6 -9 10 -20 10 -11 0 -20 -4 -20 -10z"/>
 <path d="M590 1346 c0 -9 7 -16 16 -16 17 0 14 22 -4 28 -7 2 -12 -3 -12 -12z"/>
 <path d="M837 1343 c-14 -13 -6 -33 13 -33 13 0 20 7 20 20 0 19 -20 27 -33 13z"/>
 <path d="M500 1295 c0 -8 7 -15 15 -15 8 0 15 7 15 15 0 8 -7 15 -15 15 -8 0 -15 -7 -15 -15z"/>
 <path d="M400 1261 c0 -5 7 -12 16 -15 22 -9 24 -8 24 9 0 8 -9 15 -20 15 -11 0 -20 -4 -20 -9z"/>
 <path d="M310 1240 c0 -5 7 -10 15 -10 8 0 15 5 15 10 0 6 -7 10 -15 10 -8 0 -15 -4 -15 -10z"/>
 <path d="M540 1215 c0 -9 9 -15 25 -15 16 0 25 6 25 15 0 9 -9 15 -25 15 -16 0 -25 -6 -25 -15z"/>
 <path d="M370 1150 c0 -5 9 -10 20 -10 11 0 20 5 20 10 0 6 -9 10 -20 10 -11 0 -20 -4 -20 -10z"/>
 <path d="M1713 203 c-7 -2 -13 -11 -13 -19 0 -9 -11 -14 -30 -14 -33 0 -50 -22 -50 -68 0 -22 10 -39 37 -62 34 -30 40 -32 92 -27 37 4 60 12 69 24 58 79 -19 201 -105 166z m35 -140 c3 -19 -1 -23 -25 -23 -38 0 -57 14 -50 35 11 26 71 16 75 -12z"/>
 </g>
<g id="layer103" fill="#fff533" stroke="none">
 <path d="M854 1032 c-65 -27 -74 -38 -74 -96 0 -43 5 -58 31 -88 41 -51 106 -78 184 -78 53 0 68 4 103 29 38 28 61 65 48 78 -3 4 -6 2 -6 -4 0 -17 -68 -53 -99 -53 -62 0 -131 66 -131 125 0 42 40 65 115 65 51 0 60 -3 88 -32 16 -18 25 -24 19 -13 -17 34 -45 52 -101 69 -69 20 -125 20 -177 -2z"/>
 <path d="M1500 452 c-19 -9 -50 -22 -67 -30 -29 -13 -46 -42 -25 -42 5 0 36 -26 69 -57 145 -137 223 -183 223 -132 0 11 -5 30 -12 42 -12 24 -137 218 -147 228 -3 4 -22 0 -41 -9z"/>
 </g>
<g id="layer104" fill="#f3d219" stroke="none">
 <path d="M837 1807 c1 -45 4 -111 8 -147 4 -43 1 -83 -8 -118 -14 -53 -14 -54 9 -63 34 -12 159 -140 231 -237 16 -20 35 -44 43 -52 22 -24 102 -118 144 -170 21 -25 45 -52 54 -60 9 -8 51 -55 92 -104 85 -102 85 -102 197 -218 71 -74 83 -83 89 -66 9 29 7 73 -6 153 -7 39 -15 96 -20 128 -9 69 -22 89 -112 181 -66 67 -148 170 -265 330 -49 67 -119 156 -208 265 -22 27 -53 59 -68 71 -15 12 -59 60 -98 106 -38 46 -73 84 -77 84 -4 0 -6 -37 -5 -83z"/>
 </g>
<g id="layer105" fill="#f6b900" stroke="none">
 <path d="M712 1908 c-29 -4 -61 -12 -71 -17 -9 -5 -55 -23 -102 -39 -46 -16 -110 -41 -142 -56 -32 -14 -62 -26 -68 -26 -6 0 -34 -11 -64 -25 -66 -32 -68 -38 -67 -220 1 -227 12 -267 64 -231 12 9 28 16 35 16 7 0 48 23 91 50 81 52 201 100 248 100 14 0 64 10 110 22 l83 22 11 53 c6 29 8 78 5 110 -4 32 -7 100 -7 151 1 50 -2 92 -6 93 -32 5 -75 4 -120 -3z"/>
 <path d="M1364 745 c-4 -9 -1 -28 5 -42 10 -22 9 -29 -10 -49 -19 -21 -20 -26 -9 -53 16 -39 42 -47 80 -24 36 21 48 56 29 79 -8 9 -23 35 -34 58 -21 43 -51 58 -61 31z"/>
 <path d="M1183 679 c-9 -9 -8 -19 3 -40 14 -28 14 -29 -23 -46 -45 -22 -49 -33 -23 -66 27 -34 58 -35 66 -2 6 24 34 36 34 15 0 -18 39 -10 45 9 5 17 -28 91 -58 129 -12 15 -30 15 -44 1z"/>
 <path d="M993 599 c-15 -15 4 -55 54 -110 37 -41 67 -50 77 -22 5 11 -5 29 -30 54 -20 20 -41 48 -48 60 -13 27 -36 35 -53 18z"/>
 </g>
<g id="layer106" fill="#000000" stroke="none">
 <path d="M1450 1635 l0 -75 90 0 90 0 0 75 0 75 -90 0 -90 0 0 -75z"/>
 <path d="M1060 1662 c0 -4 24 -34 53 -68 60 -70 107 -130 180 -230 115 -158 200 -263 273 -338 81 -85 104 -124 104 -180 0 -19 4 -46 10 -60 9 -26 10 -26 125 -26 l115 0 0 210 0 210 -160 0 -160 0 0 130 0 130 -130 0 -130 0 0 115 0 115 -140 0 c-77 0 -140 -3 -140 -8z"/>
 <path d="M140 1300 l0 -120 -60 0 -60 0 0 -210 0 -210 185 0 185 0 0 -145 0 -145 297 0 297 0 -54 54 c-30 30 -82 85 -115 122 -33 37 -169 177 -302 309 -134 132 -243 246 -243 252 0 6 -11 20 -24 30 -24 19 -46 93 -46 153 0 27 -3 30 -30 30 l-30 0 0 -120z"/>
 <path d="M80 615 l0 -45 45 0 45 0 0 45 0 45 -45 0 -45 0 0 -45z"/>
 <path d="M220 500 l0 -70 55 0 55 0 0 70 0 70 -55 0 -55 0 0 -70z"/>
 </g>
<g id="layer107" fill="#fde500" stroke="none">
 <path d="M735 1480 c-33 -10 -75 -19 -93 -19 -54 -2 -170 -48 -254 -101 -43 -27 -83 -50 -88 -50 -16 0 -79 -35 -80 -44 0 -4 11 -17 25 -28 14 -11 25 -25 25 -31 0 -6 109 -120 243 -252 133 -133 264 -266 290 -296 61 -68 208 -219 213 -219 7 0 38 -34 56 -61 14 -22 24 -26 65 -27 53 0 251 47 298 72 17 9 33 16 37 16 5 0 36 13 70 29 35 16 73 32 86 36 12 3 22 11 22 16 0 5 7 9 15 9 32 0 12 36 -62 113 -101 103 -104 107 -193 213 -41 49 -83 96 -92 104 -9 8 -33 35 -54 60 -42 52 -122 146 -144 170 -8 8 -27 32 -43 52 -31 43 -94 114 -152 174 -37 39 -106 86 -123 83 -4 -1 -34 -9 -67 -19z m115 -70 c0 -5 -9 -10 -20 -10 -11 0 -20 5 -20 10 0 6 9 10 20 10 11 0 20 -4 20 -10z m-120 -30 c0 -5 -9 -10 -20 -10 -11 0 -20 5 -20 10 0 6 9 10 20 10 11 0 20 -4 20 -10z m-112 -38 c2 -7 -3 -12 -12 -12 -9 0 -16 7 -16 16 0 17 22 14 28 -4z m252 -12 c0 -13 -7 -20 -20 -20 -19 0 -27 20 -13 33 13 14 33 6 33 -13z m-340 -35 c0 -8 -7 -15 -15 -15 -8 0 -15 7 -15 15 0 8 7 15 15 15 8 0 15 -7 15 -15z m240 0 c0 -8 -7 -15 -15 -15 -8 0 -15 7 -15 15 0 8 7 15 15 15 8 0 15 -7 15 -15z m-330 -40 c0 -17 -2 -18 -24 -9 -23 9 -20 24 4 24 11 0 20 -7 20 -15z m238 3 c-7 -19 -38 -22 -38 -4 0 10 9 16 21 16 12 0 19 -5 17 -12z m-338 -18 c0 -5 -7 -10 -15 -10 -8 0 -15 5 -15 10 0 6 7 10 15 10 8 0 15 -4 15 -10z m250 -25 c0 -9 -9 -15 -25 -15 -16 0 -25 6 -25 15 0 9 9 15 25 15 16 0 25 -6 25 -15z m-100 -35 c0 -5 -7 -10 -15 -10 -8 0 -15 5 -15 10 0 6 7 10 15 10 8 0 15 -4 15 -10z m-80 -30 c0 -5 -9 -10 -20 -10 -11 0 -20 5 -20 10 0 6 9 10 20 10 11 0 20 -4 20 -10z m621 -116 c56 -17 84 -35 101 -69 6 -11 -3 -5 -19 13 -28 29 -37 32 -88 32 -75 0 -115 -23 -115 -65 0 -59 69 -125 131 -125 31 0 99 36 99 53 0 6 3 8 6 4 13 -13 -10 -50 -48 -78 -35 -25 -50 -29 -103 -29 -78 0 -143 27 -184 78 -26 30 -31 45 -31 88 0 58 9 69 74 96 52 22 108 22 177 2z m394 -320 c11 -23 26 -49 34 -58 19 -23 7 -58 -29 -79 -38 -23 -64 -15 -80 24 -11 27 -10 32 9 53 19 20 20 27 10 49 -6 14 -9 33 -5 42 10 27 40 12 61 -31z m-198 -36 c30 -38 63 -112 58 -129 -6 -19 -45 -27 -45 -9 0 21 -28 9 -34 -15 -8 -33 -39 -32 -66 2 -26 33 -22 44 23 66 37 17 37 18 23 46 -11 21 -12 31 -3 40 14 14 32 14 44 -1z m-181 -97 c7 -12 28 -40 48 -60 25 -25 35 -43 30 -54 -10 -28 -40 -19 -77 22 -50 55 -69 95 -54 110 17 17 40 9 53 -18z"/>
 </g>

</svg>